 <svg id="map" viewBox="0 0 1000 1000" fill="none" xmlns="http://www.w3.org/2000/svg"><style><![CDATA[@import url("https://fonts.googleapis.com/css2?family=Noto+Sans+JP:wght@400&display=swap");]]></style><g data-comment="南海本線"><text data-comment="路線名" x="496" y="286" font-size="20" fill="hsl(220, 100%, 50%)" font-family="Noto Sans JP">南海本線</text><g data-comment="駅名"><text x="715.52" y="156.61" font-size="7.04" dominant-baseline="middle" fill="hsl(0, 0%, 30%)" font-family="Noto Sans JP"> </text><text x="688.8" y="174.47" font-size="7.04" dominant-baseline="middle" fill="hsl(0, 0%, 30%)" font-family="Noto Sans JP">粉浜</text><text x="672" y="185.11" font-size="7.04" dominant-baseline="middle" fill="hsl(0, 0%, 30%)" font-family="Noto Sans JP">住吉大社</text><text x="675.04" y="198.6" font-size="7.04" dominant-baseline="middle" fill="hsl(0, 0%, 30%)" font-family="Noto Sans JP">住ノ江</text><text x="670.88" y="223.49" font-size="7.04" dominant-baseline="middle" fill="hsl(0, 0%, 30%)" font-family="Noto Sans JP">七道</text><text x="674.4" y="245.34" font-size="11.2" dominant-baseline="middle" fill="hsl(0, 0%, 30%)" font-family="Noto Sans JP">堺</text><text x="660.64" y="266.43" font-size="7.04" dominant-baseline="middle" fill="hsl(0, 0%, 30%)" font-family="Noto Sans JP">湊</text><text x="649.6" y="287.9" font-size="7.04" dominant-baseline="middle" fill="hsl(0, 0%, 30%)" font-family="Noto Sans JP">石津川</text><text x="642.4" y="304.05" font-size="7.04" dominant-baseline="middle" fill="hsl(0, 0%, 30%)" font-family="Noto Sans JP">諏訪ノ森</text><text x="636" y="322.48" font-size="7.04" dominant-baseline="middle" fill="hsl(0, 0%, 30%)" font-family="Noto Sans JP">浜寺公園</text><text x="617.12" y="359.91" font-size="7.04" dominant-baseline="middle" fill="hsl(0, 0%, 30%)" font-family="Noto Sans JP">高石</text><text x="601.12" y="373.02" font-size="7.04" dominant-baseline="middle" fill="hsl(0, 0%, 30%)" font-family="Noto Sans JP">北助松</text><text x="587.84" y="384.04" font-size="7.04" dominant-baseline="middle" fill="hsl(0, 0%, 30%)" font-family="Noto Sans JP">松ノ浜</text><text x="575.2" y="396.39" font-size="9.6" dominant-baseline="middle" fill="hsl(0, 0%, 30%)" font-family="Noto Sans JP">泉大津</text><text x="560.8" y="421.85" font-size="7.04" dominant-baseline="middle" fill="hsl(0, 0%, 30%)" font-family="Noto Sans JP">忠岡</text><text x="551.84" y="443.32" font-size="7.04" dominant-baseline="middle" fill="hsl(0, 0%, 30%)" font-family="Noto Sans JP">春木</text><text x="540.32" y="461.75" font-size="7.04" dominant-baseline="middle" fill="hsl(0, 0%, 30%)" font-family="Noto Sans JP">和泉大宮</text><text x="529.28" y="476.38" font-size="11.2" dominant-baseline="middle" fill="hsl(0, 0%, 30%)" font-family="Noto Sans JP">岸和田</text><text x="486.56" y="481.7" font-size="7.04" dominant-baseline="middle" fill="hsl(0, 0%, 30%)" font-family="Noto Sans JP">蛸地蔵</text><text x="496" y="504.88" font-size="9.6" dominant-baseline="middle" fill="hsl(0, 0%, 30%)" font-family="Noto Sans JP">貝塚</text><text x="476.32" y="529.39" font-size="7.04" dominant-baseline="middle" fill="hsl(0, 0%, 30%)" font-family="Noto Sans JP">二色浜</text><text x="466.08" y="540.22" font-size="7.04" dominant-baseline="middle" fill="hsl(0, 0%, 30%)" font-family="Noto Sans JP">鶴原</text><text x="452.96" y="554.28" font-size="7.04" dominant-baseline="middle" fill="hsl(0, 0%, 30%)" font-family="Noto Sans JP">井原里</text><text x="404.8" y="591.33" font-size="7.04" dominant-baseline="middle" fill="hsl(0, 0%, 30%)" font-family="Noto Sans JP">羽倉崎</text><text x="388.32" y="606.91" font-size="7.04" dominant-baseline="middle" fill="hsl(0, 0%, 30%)" font-family="Noto Sans JP">吉見ノ里</text><text x="367.52" y="622.11" font-size="7.04" dominant-baseline="middle" fill="hsl(0, 0%, 30%)" font-family="Noto Sans JP">岡田浦</text><text x="343.04" y="641.49" font-size="7.04" dominant-baseline="middle" fill="hsl(0, 0%, 30%)" font-family="Noto Sans JP">樽井</text><text x="309.12" y="666.19" font-size="11.2" dominant-baseline="middle" fill="hsl(0, 0%, 30%)" font-family="Noto Sans JP">尾崎</text><text x="295.2" y="683.29" font-size="7.04" dominant-baseline="middle" fill="hsl(0, 0%, 30%)" font-family="Noto Sans JP">鳥取ノ荘</text><text x="264.64" y="702.29" font-size="7.04" dominant-baseline="middle" fill="hsl(0, 0%, 30%)" font-family="Noto Sans JP">箱作</text><text x="203.36" y="726.99" font-size="7.04" dominant-baseline="middle" fill="hsl(0, 0%, 30%)" font-family="Noto Sans JP">淡輪</text><text x="166.08" y="798.62" font-size="7.04" dominant-baseline="middle" fill="hsl(0, 0%, 30%)" font-family="Noto Sans JP">孝子</text><text x="166.08" y="791.58" font-size="4.224" dominant-baseline="middle" fill="hsl(0, 0%, 30%)" font-family="Noto Sans JP">きょうし</text><text x="159.84" y="825.79" font-size="11.2" dominant-baseline="middle" fill="hsl(0, 0%, 30%)" font-family="Noto Sans JP">和歌山大学前</text></g><path data-comment="路線" d="M721.44 89.35 723.68 93.34 721.12 105.69 719.2 114.24 717.28 122.98 713.28 139.51 709.76 155.85 706.72 175.61 704.32 186.25 703.2 191.19 699.36 199.74 697.76 204.11 692.16 221.4 688.8 224.63 677.28 236.22 669.92 244.58 665.12 249.71 662.72 252.94 656.16 265.67 645.12 287.14 640.32 296.45 637.92 303.29 631.52 321.72 626.72 335.02 620.32 352.31 612.64 359.15 596.64 372.26 583.36 383.28 570.72 393.73 562.56 400.76 556.32 421.09 552.32 434.58 547.36 442.56 535.84 460.99 528 472.96 524.8 475.62 520.8 478.66 512.48 482.84 502.72 487.97 494.56 501.27 491.52 504.12 476.48 518.75 474.08 526.16 471.84 528.63 461.6 539.46 448.48 553.52 438.88 563.78 437.12 565.3 434.24 566.82 427.52 568.72 420.16 571.57 400.32 590.57 383.84 606.15 379.04 610.71 363.04 619.45 355.84 623.44 347.68 633.51 338.56 638.83 329.92 643.96 327.2 649.47 324.8 652.32 322.08 653.84 311.2 657.64 304.64 663.53 301.12 666.76 296.96 677.21 296 678.92 294.08 680.82 291.84 682.15 290.72 682.53 283.68 685.19 276.8 691.27 260.16 701.53 256.64 703.62 255.68 704 254.24 704.38 252.96 704.38 246.24 704 244.8 704 243.36 704.38 242.24 704.95 232 711.03 228.96 711.98 226.88 713.31 225.6 714.64 224.64 716.54 224 717.68 222.08 719.2 220.48 719.77 218.88 719.58 217.6 719.2 214.24 718.63 211.52 718.63 209.12 719.01 207.2 719.77 205.28 720.53 195.2 724.71 190.4 725.66 188.64 726.04 186.4 727.18 184.48 728.51 177.92 734.02 171.84 739.15 170.56 741.24 169.76 743.14 169.6 745.23 170.08 746.75 173.28 752.83 173.76 753.78 174.4 755.87 174.4 758.53 174.56 761.57 175.36 763.28 176.64 765.18 177.28 767.65 177.12 769.36 176.48 770.69 166.56 781.33 160.48 793.11 160.32 794.82 161.6 797.86 162.4 799.19 162.88 801.09 162.88 802.61 162.24 804.7 156.16 816.48 155.36 825.03 155.04 828.45 154.08 831.11 153.76 832.82 153.76 836.43 154.56 840.42 154.56 842.7 153.92 844.41 153.12 845.93 152.96 847.64 153.28 849.16 154.4 850.87 157.6 853.34 160.48 854.29 163.36 854.29 184.96 865.5 187.2 866.64 189.6 868.35 191.36 870.44 192.8 873.67 196.32 888.68 196.48 890.39 196 891.91 194.88 893.43 186.24 900.46 " stroke-width="1.44" stroke="hsl(220, 100%, 50%)"></path><path data-comment="駅" d="M 707.84 155.85 A 1.92 1.92 0 0 0 711.68 155.85 1.92 1.92 0 0 0 707.84 155.85 M 704.8 175.61 A 1.92 1.92 0 0 0 708.64 175.61 1.92 1.92 0 0 0 704.8 175.61 M 702.4 186.25 A 1.92 1.92 0 0 0 706.24 186.25 1.92 1.92 0 0 0 702.4 186.25 M 697.44 199.74 A 1.92 1.92 0 0 0 701.28 199.74 1.92 1.92 0 0 0 697.44 199.74 M 686.88 224.63 A 1.92 1.92 0 0 0 690.72 224.63 1.92 1.92 0 0 0 686.88 224.63 M 666.24 244.58 A 3.68 3.68 0 0 0 673.6 244.58 3.68 3.68 0 0 0 666.24 244.58 M 654.24 265.67 A 1.92 1.92 0 0 0 658.08 265.67 1.92 1.92 0 0 0 654.24 265.67 M 643.2 287.14 A 1.92 1.92 0 0 0 647.04 287.14 1.92 1.92 0 0 0 643.2 287.14 M 636 303.29 A 1.92 1.92 0 0 0 639.84 303.29 1.92 1.92 0 0 0 636 303.29 M 629.6 321.72 A 1.92 1.92 0 0 0 633.44 321.72 1.92 1.92 0 0 0 629.6 321.72 M 610.72 359.15 A 1.92 1.92 0 0 0 614.56 359.15 1.92 1.92 0 0 0 610.72 359.15 M 594.72 372.26 A 1.92 1.92 0 0 0 598.56 372.26 1.92 1.92 0 0 0 594.72 372.26 M 581.44 383.28 A 1.92 1.92 0 0 0 585.28 383.28 1.92 1.92 0 0 0 581.44 383.28 M 567.68 393.73 A 3.04 3.04 0 0 0 573.76 393.73 3.04 3.04 0 0 0 567.68 393.73 M 554.4 421.09 A 1.92 1.92 0 0 0 558.24 421.09 1.92 1.92 0 0 0 554.4 421.09 M 545.44 442.56 A 1.92 1.92 0 0 0 549.28 442.56 1.92 1.92 0 0 0 545.44 442.56 M 533.92 460.99 A 1.92 1.92 0 0 0 537.76 460.99 1.92 1.92 0 0 0 533.92 460.99 M 521.12 475.62 A 3.68 3.68 0 0 0 528.48 475.62 3.68 3.68 0 0 0 521.12 475.62 M 510.56 482.84 A 1.92 1.92 0 0 0 514.4 482.84 1.92 1.92 0 0 0 510.56 482.84 M 488.48 504.12 A 3.04 3.04 0 0 0 494.56 504.12 3.04 3.04 0 0 0 488.48 504.12 M 469.92 528.63 A 1.92 1.92 0 0 0 473.76 528.63 1.92 1.92 0 0 0 469.92 528.63 M 459.68 539.46 A 1.92 1.92 0 0 0 463.52 539.46 1.92 1.92 0 0 0 459.68 539.46 M 446.56 553.52 A 1.92 1.92 0 0 0 450.4 553.52 1.92 1.92 0 0 0 446.56 553.52 M 398.4 590.57 A 1.92 1.92 0 0 0 402.24 590.57 1.92 1.92 0 0 0 398.4 590.57 M 381.92 606.15 A 1.92 1.92 0 0 0 385.76 606.15 1.92 1.92 0 0 0 381.92 606.15 M 361.12 619.45 A 1.92 1.92 0 0 0 364.96 619.45 1.92 1.92 0 0 0 361.12 619.45 M 336.64 638.83 A 1.92 1.92 0 0 0 340.48 638.83 1.92 1.92 0 0 0 336.64 638.83 M 300.96 663.53 A 3.68 3.68 0 0 0 308.32 663.53 3.68 3.68 0 0 0 300.96 663.53 M 288.8 682.53 A 1.92 1.92 0 0 0 292.64 682.53 1.92 1.92 0 0 0 288.8 682.53 M 258.24 701.53 A 1.92 1.92 0 0 0 262.08 701.53 1.92 1.92 0 0 0 258.24 701.53 M 203.36 720.53 A 1.92 1.92 0 0 0 207.2 720.53 1.92 1.92 0 0 0 203.36 720.53 M 159.68 797.86 A 1.92 1.92 0 0 0 163.52 797.86 1.92 1.92 0 0 0 159.68 797.86 M 151.68 825.03 A 3.68 3.68 0 0 0 159.04 825.03 3.68 3.68 0 0 0 151.68 825.03 " stroke-width="0.96" fill="white" stroke="hsl(0, 0%, 30%)"></path></g><g data-comment="空港線"><text data-comment="路線名" x="352" y="495" font-size="20" fill="hsl(280, 100%, 50%)" font-family="Noto Sans JP">空港線</text><g data-comment="駅名"><text x="432" y="573.28" font-size="11.2" dominant-baseline="middle" fill="hsl(0, 0%, 30%)" font-family="Noto Sans JP">泉佐野</text><text x="314.24" y="570.43" font-size="11.2" dominant-baseline="middle" fill="hsl(0, 0%, 30%)" font-family="Noto Sans JP">りんくうタウン</text><text x="259.68" y="522.74" font-size="11.2" dominant-baseline="middle" fill="hsl(0, 0%, 30%)" font-family="Noto Sans JP">関西空港</text></g><path data-comment="路線" d="M427.52 568.72 418.56 570.43 416.32 572.14 413.76 574.61 411.2 576.13 408.48 576.32 405.92 575.37 405.12 574.61 399.36 569.67 346.24 522.55 338.72 513.81 335.68 511.15 332 509.44 327.84 508.87 321.6 509.44 319.36 510.39 318.08 511.34 316 513.05 311.68 520.27 309.6 521.98 " stroke-width="1.44" stroke="hsl(280, 100%, 50%)"></path><path data-comment="駅" d="M 423.84 568.72 A 3.68 3.68 0 0 0 431.2 568.72 3.68 3.68 0 0 0 423.84 568.72 M 395.68 569.67 A 3.68 3.68 0 0 0 403.04 569.67 3.68 3.68 0 0 0 395.68 569.67 M 305.92 521.98 A 3.68 3.68 0 0 0 313.28 521.98 3.68 3.68 0 0 0 305.92 521.98 " stroke-width="0.96" fill="white" stroke="hsl(0, 0%, 30%)"></path></g><g data-comment="高師浜線"><text data-comment="路線名" x="576" y="324" font-size="11.52" fill="hsl(200, 100%, 50%)" font-family="Noto Sans JP">高師浜線</text><g data-comment="駅名"><text x="631.2" y="335.78" font-size="9.6" dominant-baseline="middle" fill="hsl(0, 0%, 30%)" font-family="Noto Sans JP">羽衣</text><text x="597.28" y="338.44" font-size="7.04" dominant-baseline="middle" fill="hsl(0, 0%, 30%)" font-family="Noto Sans JP">伽羅橋</text><text x="597.28" y="331.4" font-size="4.224" dominant-baseline="middle" fill="hsl(0, 0%, 30%)" font-family="Noto Sans JP">きゃらばし</text><text x="584.96" y="348.7" font-size="7.04" dominant-baseline="middle" fill="hsl(0, 0%, 30%)" font-family="Noto Sans JP">高師浜</text></g><path data-comment="路線" d="M624.16 335.02 622.56 339.2 621.12 343.19 620 344.9 619.04 345.47 619.04 345.47 618.4 345.28 615.52 344.71 613.76 344.71 613.28 344.9 612.32 345.85 610.88 347.94 " stroke-width="1.44" stroke="hsl(200, 100%, 50%)"></path><path data-comment="駅" d="M 622.4 335.02 A 3.04 3.04 0 0 0 628.48 335.02 3.04 3.04 0 0 0 622.4 335.02 M 613.92 344.71 A 1.92 1.92 0 0 0 617.76 344.71 1.92 1.92 0 0 0 613.92 344.71 M 608.96 347.94 A 1.92 1.92 0 0 0 612.8 347.94 1.92 1.92 0 0 0 608.96 347.94 " stroke-width="0.96" fill="white" stroke="hsl(0, 0%, 30%)"></path></g><g data-comment="多奈川線"><text data-comment="路線名" x="128" y="723" font-size="11.52" fill="hsl(200, 100%, 50%)" font-family="Noto Sans JP">多奈川線</text><g data-comment="駅名"><text x="182.08" y="738.2" font-size="11.2" dominant-baseline="middle" fill="hsl(0, 0%, 30%)" font-family="Noto Sans JP">みさき公園</text><text x="148.64" y="757.39" font-size="7.04" dominant-baseline="middle" fill="hsl(0, 0%, 30%)" font-family="Noto Sans JP">深日町</text><text x="148.64" y="750.35" font-size="4.224" dominant-baseline="middle" fill="hsl(0, 0%, 30%)" font-family="Noto Sans JP">ふけちょう</text><text x="128.64" y="740.29" font-size="7.04" dominant-baseline="middle" fill="hsl(0, 0%, 30%)" font-family="Noto Sans JP">深日港</text><text x="128.64" y="733.25" font-size="4.224" dominant-baseline="middle" fill="hsl(0, 0%, 30%)" font-family="Noto Sans JP">ふけこう</text><text x="115.68" y="749.03" font-size="7.04" dominant-baseline="middle" fill="hsl(0, 0%, 30%)" font-family="Noto Sans JP">多奈川</text></g><path data-comment="路線" d="M175.68 732.88 169.92 737.63 168.64 739.72 167.2 742.19 165.92 743.52 164.32 744.47 156.96 745.23 154.72 745.61 146.56 747.13 140 748.27 " stroke-width="1.44" stroke="hsl(200, 100%, 50%)"></path><path data-comment="駅" d="M 173.92 734.4 A 3.68 3.68 0 0 0 181.28 734.4 3.68 3.68 0 0 0 173.92 734.4 M 155.04 745.23 A 1.92 1.92 0 0 0 158.88 745.23 1.92 1.92 0 0 0 155.04 745.23 M 144.64 747.13 A 1.92 1.92 0 0 0 148.48 747.13 1.92 1.92 0 0 0 144.64 747.13 M 138.08 748.27 A 1.92 1.92 0 0 0 141.92 748.27 1.92 1.92 0 0 0 138.08 748.27 " stroke-width="0.96" fill="white" stroke="hsl(0, 0%, 30%)"></path></g><g data-comment="加太線"><text data-comment="路線名" x="80" y="837" font-size="11.52" fill="hsl(200, 100%, 50%)" font-family="Noto Sans JP">加太線</text><g data-comment="駅名"><text x="189.44" y="864.36" font-size="7.04" dominant-baseline="middle" fill="hsl(0, 0%, 30%)" font-family="Noto Sans JP">紀ノ川</text><text x="142.08" y="885.64" font-size="7.04" dominant-baseline="middle" fill="hsl(0, 0%, 30%)" font-family="Noto Sans JP">東松江</text><text x="114.88" y="883.93" font-size="7.04" dominant-baseline="middle" fill="hsl(0, 0%, 30%)" font-family="Noto Sans JP">中松江</text><text x="117.76" y="867.02" font-size="7.04" dominant-baseline="middle" fill="hsl(0, 0%, 30%)" font-family="Noto Sans JP">八幡前</text><text x="79.04" y="872.91" font-size="7.04" dominant-baseline="middle" fill="hsl(0, 0%, 30%)" font-family="Noto Sans JP">西ノ庄</text><text x="83.36" y="853.91" font-size="7.04" dominant-baseline="middle" fill="hsl(0, 0%, 30%)" font-family="Noto Sans JP">二里ヶ浜</text><text x="53.76" y="861.51" font-size="7.04" dominant-baseline="middle" fill="hsl(0, 0%, 30%)" font-family="Noto Sans JP">磯ノ浦</text><text x="31.04" y="828.07" font-size="7.04" dominant-baseline="middle" fill="hsl(0, 0%, 30%)" font-family="Noto Sans JP">加太</text></g><path data-comment="路線" d="M184.96 865.5 181.76 863.98 180 863.98 178.08 864.74 160.64 873.1 154.72 878.23 152.8 879.56 149.92 879.75 145.6 879.18 134.88 878.04 132.8 877.47 121.12 873.48 114.88 870.06 113.12 869.11 109.6 866.64 96.96 864.55 92.96 863.79 88.8 861.51 86.88 860.75 84.32 860.18 79.2 857.33 71.68 855.05 65.76 853.34 64 852.39 63.52 851.63 63.04 850.49 63.04 848.4 63.2 847.26 63.36 842.7 61.6 839.85 60.64 839.09 56.8 837.57 55.36 836.62 54.88 835.1 54.56 830.35 53.44 827.88 52.32 827.12 50.56 826.93 48.96 827.31 " stroke-width="1.44" stroke="hsl(200, 100%, 50%)"></path><path data-comment="駅" d="M 183.04 865.5 A 1.92 1.92 0 0 0 186.88 865.5 1.92 1.92 0 0 0 183.04 865.5 M 143.68 879.18 A 1.92 1.92 0 0 0 147.52 879.18 1.92 1.92 0 0 0 143.68 879.18 M 130.88 877.47 A 1.92 1.92 0 0 0 134.72 877.47 1.92 1.92 0 0 0 130.88 877.47 M 112.96 870.06 A 1.92 1.92 0 0 0 116.8 870.06 1.92 1.92 0 0 0 112.96 870.06 M 95.04 864.55 A 1.92 1.92 0 0 0 98.88 864.55 1.92 1.92 0 0 0 95.04 864.55 M 84.96 860.75 A 1.92 1.92 0 0 0 88.8 860.75 1.92 1.92 0 0 0 84.96 860.75 M 69.76 855.05 A 1.92 1.92 0 0 0 73.6 855.05 1.92 1.92 0 0 0 69.76 855.05 M 47.04 827.31 A 1.92 1.92 0 0 0 50.88 827.31 1.92 1.92 0 0 0 47.04 827.31 " stroke-width="0.96" fill="white" stroke="hsl(0, 0%, 30%)"></path></g><g data-comment="和歌山港線"><text data-comment="路線名" x="112" y="913" font-size="11.52" fill="hsl(200, 100%, 50%)" font-family="Noto Sans JP">和歌山港線</text><g data-comment="駅名"><text x="190.72" y="903.12" font-size="11.2" dominant-baseline="middle" fill="hsl(0, 0%, 30%)" font-family="Noto Sans JP">和歌山市</text><text x="158.72" y="939.79" font-size="11.2" dominant-baseline="middle" fill="hsl(0, 0%, 30%)" font-family="Noto Sans JP">和歌山港</text></g><path data-comment="路線" d="M186.24 900.46 181.12 904.45 180.32 906.92 177.76 912.05 175.84 917.56 174.72 919.84 172.64 922.69 164.48 928.39 161.44 930.67 158.08 932.57 156.48 933.71 155.84 934.28 155.04 935.23 154.24 937.13 " stroke-width="1.44" stroke="hsl(200, 100%, 50%)"></path><path data-comment="駅" d="M 182.56 900.46 A 3.68 3.68 0 0 0 189.92 900.46 3.68 3.68 0 0 0 182.56 900.46 M 150.56 937.13 A 3.68 3.68 0 0 0 157.92 937.13 3.68 3.68 0 0 0 150.56 937.13 " stroke-width="0.96" fill="white" stroke="hsl(0, 0%, 30%)"></path></g><g data-comment="高野線"><text data-comment="路線名" x="880" y="438" font-size="20" fill="hsl(120, 100%, 25%)" font-family="Noto Sans JP">高野線</text><g data-comment="駅名"><text x="727.2" y="89.73" font-size="11.2" dominant-baseline="middle" fill="hsl(0, 0%, 30%)" font-family="Noto Sans JP">難波</text><text x="726.88" y="106.45" font-size="7.04" dominant-baseline="middle" fill="hsl(0, 0%, 30%)" font-family="Noto Sans JP">今宮戎</text><text x="724.96" y="115" font-size="11.2" dominant-baseline="middle" fill="hsl(0, 0%, 30%)" font-family="Noto Sans JP">新今宮</text><text x="723.04" y="123.74" font-size="7.04" dominant-baseline="middle" fill="hsl(0, 0%, 30%)" font-family="Noto Sans JP">萩ノ茶屋</text><text x="719.04" y="140.27" font-size="11.2" dominant-baseline="middle" fill="hsl(0, 0%, 30%)" font-family="Noto Sans JP">天下茶屋</text><text x="718.56" y="156.99" font-size="7.04" dominant-baseline="middle" fill="hsl(0, 0%, 30%)" font-family="Noto Sans JP">岸里玉出</text><text x="721.76" y="169.53" font-size="7.04" dominant-baseline="middle" fill="hsl(0, 0%, 30%)" font-family="Noto Sans JP">帝塚山</text><text x="720.48" y="185.11" font-size="7.04" dominant-baseline="middle" fill="hsl(0, 0%, 30%)" font-family="Noto Sans JP">住吉東</text><text x="719.52" y="198.79" font-size="7.04" dominant-baseline="middle" fill="hsl(0, 0%, 30%)" font-family="Noto Sans JP">沢ノ町</text><text x="719.52" y="210" font-size="7.04" dominant-baseline="middle" fill="hsl(0, 0%, 30%)" font-family="Noto Sans JP">我孫子前</text><text x="749.92" y="210.56" font-size="4.224" dominant-baseline="middle" fill="hsl(0, 0%, 30%)" font-family="Noto Sans JP">あびこまえ</text><text x="710.24" y="230.33" font-size="7.04" dominant-baseline="middle" fill="hsl(0, 0%, 30%)" font-family="Noto Sans JP">浅香山</text><text x="700.64" y="256.55" font-size="11.2" dominant-baseline="middle" fill="hsl(0, 0%, 30%)" font-family="Noto Sans JP">堺東</text><text x="712.16" y="276.31" font-size="7.04" dominant-baseline="middle" fill="hsl(0, 0%, 30%)" font-family="Noto Sans JP">三国ヶ丘</text><text x="721.92" y="285.43" font-size="7.04" dominant-baseline="middle" fill="hsl(0, 0%, 30%)" font-family="Noto Sans JP">百舌鳥八幡</text><text x="758.72" y="285.98999999999995" font-size="4.224" dominant-baseline="middle" fill="hsl(0, 0%, 30%)" font-family="Noto Sans JP">もずはちまん</text><text x="745.76" y="305.38" font-size="7.04" dominant-baseline="middle" fill="hsl(0, 0%, 30%)" font-family="Noto Sans JP">白鷺</text><text x="766.72" y="320.39" font-size="7.04" dominant-baseline="middle" fill="hsl(0, 0%, 30%)" font-family="Noto Sans JP">初芝</text><text x="779.84" y="329.7" font-size="7.04" dominant-baseline="middle" fill="hsl(0, 0%, 30%)" font-family="Noto Sans JP">萩原天神</text><text x="793.44" y="357.25" font-size="9.6" dominant-baseline="middle" fill="hsl(0, 0%, 30%)" font-family="Noto Sans JP">北野田</text><text x="801.76" y="369.41" font-size="7.04" dominant-baseline="middle" fill="hsl(0, 0%, 30%)" font-family="Noto Sans JP">狭山</text><text x="816.32" y="392.4" font-size="7.04" dominant-baseline="middle" fill="hsl(0, 0%, 30%)" font-family="Noto Sans JP">大阪狭山市</text><text x="819.52" y="409.88" font-size="11.2" dominant-baseline="middle" fill="hsl(0, 0%, 30%)" font-family="Noto Sans JP">金剛</text><text x="824" y="439.52" font-size="7.04" dominant-baseline="middle" fill="hsl(0, 0%, 30%)" font-family="Noto Sans JP">滝谷</text><text x="830.4" y="459.28" font-size="7.04" dominant-baseline="middle" fill="hsl(0, 0%, 30%)" font-family="Noto Sans JP">千代田</text><text x="841.44" y="493.48" font-size="11.2" dominant-baseline="middle" fill="hsl(0, 0%, 30%)" font-family="Noto Sans JP">河内長野</text><text x="838.4" y="521.41" font-size="9.6" dominant-baseline="middle" fill="hsl(0, 0%, 30%)" font-family="Noto Sans JP">三日市町</text><text x="850.88" y="543.64" font-size="9.6" dominant-baseline="middle" fill="hsl(0, 0%, 30%)" font-family="Noto Sans JP">美加の台</text><text x="868.64" y="568.53" font-size="9.6" dominant-baseline="middle" fill="hsl(0, 0%, 30%)" font-family="Noto Sans JP">千早口</text><text x="877.28" y="595.32" font-size="9.6" dominant-baseline="middle" fill="hsl(0, 0%, 30%)" font-family="Noto Sans JP">天見</text><text x="877.28" y="585.72" font-size="5.76" dominant-baseline="middle" fill="hsl(0, 0%, 30%)" font-family="Noto Sans JP">あまみ</text><text x="884.96" y="655.74" font-size="9.6" dominant-baseline="middle" fill="hsl(0, 0%, 30%)" font-family="Noto Sans JP">紀見峠</text><text x="889.76" y="675.5" font-size="11.2" dominant-baseline="middle" fill="hsl(0, 0%, 30%)" font-family="Noto Sans JP">林間田園都市</text><text x="887.84" y="708.94" font-size="9.6" dominant-baseline="middle" fill="hsl(0, 0%, 30%)" font-family="Noto Sans JP">御幸辻</text><text x="896.32" y="736.3" font-size="11.2" dominant-baseline="middle" fill="hsl(0, 0%, 30%)" font-family="Noto Sans JP">橋本</text><text x="891.2" y="770.88" font-size="9.6" dominant-baseline="middle" fill="hsl(0, 0%, 30%)" font-family="Noto Sans JP">紀伊清水</text><text x="821.6" y="777.91" font-size="9.6" dominant-baseline="middle" fill="hsl(0, 0%, 30%)" font-family="Noto Sans JP">学文路</text><text x="821.6" y="768.31" font-size="5.76" dominant-baseline="middle" fill="hsl(0, 0%, 30%)" font-family="Noto Sans JP">かむろ</text><text x="827.52" y="807.74" font-size="9.6" dominant-baseline="middle" fill="hsl(0, 0%, 30%)" font-family="Noto Sans JP">九度山</text><text x="830.72" y="834.53" font-size="9.6" dominant-baseline="middle" fill="hsl(0, 0%, 30%)" font-family="Noto Sans JP">高野下</text><text x="771.04" y="844.41" font-size="9.6" dominant-baseline="middle" fill="hsl(0, 0%, 30%)" font-family="Noto Sans JP">下古沢</text><text x="801.28" y="863.6" font-size="9.6" dominant-baseline="middle" fill="hsl(0, 0%, 30%)" font-family="Noto Sans JP">上古沢</text><text x="784.64" y="913.95" font-size="9.6" dominant-baseline="middle" fill="hsl(0, 0%, 30%)" font-family="Noto Sans JP">紀伊細川</text><text x="838.08" y="889.63" font-size="9.6" dominant-baseline="middle" fill="hsl(0, 0%, 30%)" font-family="Noto Sans JP">紀伊神谷</text><text x="855.52" y="905.59" font-size="11.2" dominant-baseline="middle" fill="hsl(0, 0%, 30%)" font-family="Noto Sans JP">極楽橋</text></g><path data-comment="路線" d="M724 88.59 726.24 92.58 723.68 105.69 721.76 114.24 719.84 122.98 715.84 139.51 713.28 152.81 714.08 156.23 716.16 159.84 717.44 162.88 717.6 166.11 717.28 168.77 715.68 179.79 716 184.35 716.16 186.82 715.04 192.71 715.04 198.03 715.04 209.24 715.04 212.47 706.24 228.62 705.76 229.57 701.44 241.73 697.44 249.9 696.16 255.79 694.88 261.11 694.72 263.2 695.36 265.29 696.64 267.19 698.4 268.52 701.44 270.23 704.16 272.32 707.68 275.55 717.44 284.67 727.04 293.22 732.8 298.92 741.28 304.62 762.24 319.63 775.36 328.94 780.64 334.26 783.2 338.63 784.48 341.67 788 353.07 788.96 356.49 790.08 359.53 797.28 368.65 810.72 385.75 811.84 391.64 815.04 409.12 816.8 419.19 817.92 432.87 819.52 438.76 822.88 452.82 825.92 458.52 835.2 477.33 838.08 485.69 838.4 487.02 838.24 488.54 837.92 489.87 836.96 492.72 832.64 499.94 832 501.27 831.84 502.98 833.6 514.38 834.56 517.8 833.92 520.65 832.64 525.21 832.16 527.49 832.32 529.39 833.76 532.81 837.76 537.75 843.2 542.88 845.12 544.59 856.48 553.52 858.4 556.37 860 560.93 863.36 565.49 864.16 567.77 872.64 592.47 872.8 594.56 872.8 595.89 873.44 598.17 874.72 600.26 875.68 601.21 877.28 602.35 879.2 604.06 880.96 606.34 881.76 608.24 883.68 616.41 879.2 646.24 879.04 649.66 879.52 652.7 879.84 653.65 880.48 654.98 882.24 658.02 886.4 663.91 887.52 666.19 887.84 668.09 887.36 670.56 885.28 674.74 883.52 678.92 885.12 685 883.36 690.32 882.88 694.12 883.68 705.33 883.36 708.18 883.04 712.55 887.36 723.76 889.44 731.93 895.36 743.71 896.48 745.04 897.76 745.8 899.84 745.8 903.04 745.04 906.4 744.66 909.76 742.57 911.04 742 911.84 742 912.48 742.19 913.28 742.76 914.4 743.71 915.04 744.47 915.36 745.23 916.8 750.55 916.8 750.93 916.64 752.26 916 753.59 915.2 754.35 913.76 755.11 909.76 756.25 906.56 757.39 904.8 758.34 902.56 759.67 898.56 761.57 895.36 763.47 888.64 765.37 886.72 766.32 882.88 768.79 879.36 771.83 877.76 772.78 875.84 773.54 871.52 774.68 869.76 775.25 863.04 781.33 861.76 782.09 860.32 782.28 858.08 782.09 856.64 782.47 855.52 783.04 854.08 784.18 849.6 786.46 847.52 786.65 846.56 786.65 844.8 787.22 841.44 789.31 838.08 792.92 832.96 799.57 831.68 800.71 830.24 801.28 828.8 801.47 827.2 801.28 825.76 801.47 824.48 801.85 823.04 803.18 822.4 803.94 818.88 807.74 818.24 809.26 818.08 810.97 818.56 812.68 819.68 814.77 822.4 821.04 823.84 822.56 824.64 824.65 825.6 828.83 826.24 831.3 826.24 833.77 824.96 836.05 822.08 835.86 820.96 833.01 818.4 833.01 816.96 832.82 814.08 833.96 812.64 835.48 810.24 836.24 808.32 839.66 808.32 841.75 806.24 843.46 804.96 843.65 802.4 844.98 801.92 847.26 804.64 848.4 807.2 850.11 807.2 852.77 806.24 857.14 800.8 858.85 798.72 858.66 797.6 860.37 796.8 860.94 795.04 862.27 794.24 864.93 794.88 866.45 795.04 868.92 797.6 871.58 796.64 874.43 797.28 875.95 797.12 878.23 797.76 879.94 797.28 882.41 799.04 884.12 799.36 886.78 800 888.49 800.16 890.2 799.84 891.34 800 892.86 799.2 894.76 799.52 897.04 799.2 899.32 799.52 901.03 800.96 901.6 802.56 901.6 803.84 901.79 805.76 901.79 808.16 902.93 810.88 903.88 811.36 905.97 813.76 906.73 815.2 902.93 819.36 899.89 818.88 896.85 821.44 894.95 822.08 892.86 826.72 888.87 827.84 888.49 831.2 889.63 833.6 888.87 834.72 889.25 838.72 893.43 839.68 896.47 843.2 895.9 844.8 898.94 848.8 900.84 849.6 903.12 851.04 904.83 " stroke-width="1.44" stroke="hsl(120, 100%, 25%)"></path><path data-comment="駅" d="M 719.04 88.97 A 3.68 3.68 0 0 0 726.4 88.97 3.68 3.68 0 0 0 719.04 88.97 M 721.76 105.69 A 1.92 1.92 0 0 0 725.6 105.69 1.92 1.92 0 0 0 721.76 105.69 M 716.8 114.24 A 3.68 3.68 0 0 0 724.16 114.24 3.68 3.68 0 0 0 716.8 114.24 M 717.92 122.98 A 1.92 1.92 0 0 0 721.76 122.98 1.92 1.92 0 0 0 717.92 122.98 M 710.88 139.51 A 3.68 3.68 0 0 0 718.24 139.51 3.68 3.68 0 0 0 710.88 139.51 M 712.16 156.23 A 1.92 1.92 0 0 0 716 156.23 1.92 1.92 0 0 0 712.16 156.23 M 715.36 168.77 A 1.92 1.92 0 0 0 719.2 168.77 1.92 1.92 0 0 0 715.36 168.77 M 714.08 184.35 A 1.92 1.92 0 0 0 717.92 184.35 1.92 1.92 0 0 0 714.08 184.35 M 713.12 198.03 A 1.92 1.92 0 0 0 716.96 198.03 1.92 1.92 0 0 0 713.12 198.03 M 713.12 209.24 A 1.92 1.92 0 0 0 716.96 209.24 1.92 1.92 0 0 0 713.12 209.24 M 703.84 229.57 A 1.92 1.92 0 0 0 707.68 229.57 1.92 1.92 0 0 0 703.84 229.57 M 692.48 255.79 A 3.68 3.68 0 0 0 699.84 255.79 3.68 3.68 0 0 0 692.48 255.79 M 705.76 275.55 A 1.92 1.92 0 0 0 709.6 275.55 1.92 1.92 0 0 0 705.76 275.55 M 715.52 284.67 A 1.92 1.92 0 0 0 719.36 284.67 1.92 1.92 0 0 0 715.52 284.67 M 739.36 304.62 A 1.92 1.92 0 0 0 743.2 304.62 1.92 1.92 0 0 0 739.36 304.62 M 760.32 319.63 A 1.92 1.92 0 0 0 764.16 319.63 1.92 1.92 0 0 0 760.32 319.63 M 773.44 328.94 A 1.92 1.92 0 0 0 777.28 328.94 1.92 1.92 0 0 0 773.44 328.94 M 785.92 356.49 A 3.04 3.04 0 0 0 792 356.49 3.04 3.04 0 0 0 785.92 356.49 M 795.36 368.65 A 1.92 1.92 0 0 0 799.2 368.65 1.92 1.92 0 0 0 795.36 368.65 M 809.92 391.64 A 1.92 1.92 0 0 0 813.76 391.64 1.92 1.92 0 0 0 809.92 391.64 M 811.36 409.12 A 3.68 3.68 0 0 0 818.72 409.12 3.68 3.68 0 0 0 811.36 409.12 M 817.6 438.76 A 1.92 1.92 0 0 0 821.44 438.76 1.92 1.92 0 0 0 817.6 438.76 M 824 458.52 A 1.92 1.92 0 0 0 827.84 458.52 1.92 1.92 0 0 0 824 458.52 M 833.28 492.72 A 3.68 3.68 0 0 0 840.64 492.72 3.68 3.68 0 0 0 833.28 492.72 M 830.88 520.65 A 3.04 3.04 0 0 0 836.96 520.65 3.04 3.04 0 0 0 830.88 520.65 M 840.16 542.88 A 3.04 3.04 0 0 0 846.24 542.88 3.04 3.04 0 0 0 840.16 542.88 M 861.12 567.77 A 3.04 3.04 0 0 0 867.2 567.77 3.04 3.04 0 0 0 861.12 567.77 M 869.76 594.56 A 3.04 3.04 0 0 0 875.84 594.56 3.04 3.04 0 0 0 869.76 594.56 M 877.44 654.98 A 3.04 3.04 0 0 0 883.52 654.98 3.04 3.04 0 0 0 877.44 654.98 M 881.6 674.74 A 3.68 3.68 0 0 0 888.96 674.74 3.68 3.68 0 0 0 881.6 674.74 M 880.32 708.18 A 3.04 3.04 0 0 0 886.4 708.18 3.04 3.04 0 0 0 880.32 708.18 M 899.36 745.04 A 3.68 3.68 0 0 0 906.72 745.04 3.68 3.68 0 0 0 899.36 745.04 M 883.68 766.32 A 3.04 3.04 0 0 0 889.76 766.32 3.04 3.04 0 0 0 883.68 766.32 M 844.48 786.65 A 3.04 3.04 0 0 0 850.56 786.65 3.04 3.04 0 0 0 844.48 786.65 M 820 803.18 A 3.04 3.04 0 0 0 826.08 803.18 3.04 3.04 0 0 0 820 803.18 M 823.2 833.77 A 3.04 3.04 0 0 0 829.28 833.77 3.04 3.04 0 0 0 823.2 833.77 M 801.92 843.65 A 3.04 3.04 0 0 0 808 843.65 3.04 3.04 0 0 0 801.92 843.65 M 793.76 860.94 A 3.04 3.04 0 0 0 799.84 860.94 3.04 3.04 0 0 0 793.76 860.94 M 802.72 901.79 A 3.04 3.04 0 0 0 808.8 901.79 3.04 3.04 0 0 0 802.72 901.79 M 830.56 888.87 A 3.04 3.04 0 0 0 836.64 888.87 3.04 3.04 0 0 0 830.56 888.87 M 847.36 904.83 A 3.68 3.68 0 0 0 854.72 904.83 3.68 3.68 0 0 0 847.36 904.83 " stroke-width="0.96" fill="white" stroke="hsl(0, 0%, 30%)"></path></g><g data-comment="鋼索線 [高野山ケーブル]"><text data-comment="路線名" x="784" y="932" font-size="11.52" fill="hsl(92, 100%, 36%)" font-family="Noto Sans JP">鋼索線 [高野山ケーブル]</text><g data-comment="駅名"><text x="855.36" y="906.92" font-size="7.04" dominant-baseline="middle" fill="hsl(0, 0%, 30%)" font-family="Noto Sans JP"> </text><text x="848.32" y="918.32" font-size="7.04" dominant-baseline="middle" fill="hsl(0, 0%, 30%)" font-family="Noto Sans JP">高野山</text></g><path data-comment="路線" d="M847.68 909.96 848 910.53 846.4 915.47 843.84 917.56 " stroke-width="1.44" stroke="hsl(92, 100%, 36%)"></path><path data-comment="駅" d="M 845.76 909.96 A 1.92 1.92 0 0 0 849.6 909.96 1.92 1.92 0 0 0 845.76 909.96 M 841.92 917.56 A 1.92 1.92 0 0 0 845.76 917.56 1.92 1.92 0 0 0 841.92 917.56 " stroke-width="0.96" fill="white" stroke="hsl(0, 0%, 30%)"></path></g><g data-comment="高野線 [汐見橋線]"><text data-comment="路線名" x="592" y="122.6" font-size="11.52" fill="hsl(92, 100%, 36%)" font-family="Noto Sans JP">高野線 [汐見橋線]</text><g data-comment="駅名"><text x="673.6" y="81.94" font-size="7.04" dominant-baseline="middle" fill="hsl(0, 0%, 30%)" font-family="Noto Sans JP">汐見橋</text><text x="674.08" y="95.81" font-size="7.04" dominant-baseline="middle" fill="hsl(0, 0%, 30%)" font-family="Noto Sans JP">芦原町</text><text x="668.48" y="107.02" font-size="7.04" dominant-baseline="middle" fill="hsl(0, 0%, 30%)" font-family="Noto Sans JP">木津川</text><text x="697.76" y="121.27" font-size="7.04" dominant-baseline="middle" fill="hsl(0, 0%, 30%)" font-family="Noto Sans JP">津守</text><text x="662.56" y="137.8" font-size="7.04" dominant-baseline="middle" fill="hsl(0, 0%, 30%)" font-family="Noto Sans JP">西天下茶屋</text><text x="715.52" y="156.61" font-size="7.04" dominant-baseline="middle" fill="hsl(0, 0%, 30%)" font-family="Noto Sans JP"> </text></g><path data-comment="路線" d="M697.92 81.18 698.4 82.7 698.56 92.01 698.4 95.05 697.92 99.23 692.8 106.26 691.68 108.16 690.88 109.87 690.4 112.91 690.72 115.19 691.52 117.47 693.28 120.51 702.88 137.04 708.48 146.54 707.2 152.24 706.24 155.85 " stroke-width="1.44" stroke="hsl(92, 100%, 36%)"></path><path data-comment="駅" d="M 696 81.18 A 1.92 1.92 0 0 0 699.84 81.18 1.92 1.92 0 0 0 696 81.18 M 696.48 95.05 A 1.92 1.92 0 0 0 700.32 95.05 1.92 1.92 0 0 0 696.48 95.05 M 690.88 106.26 A 1.92 1.92 0 0 0 694.72 106.26 1.92 1.92 0 0 0 690.88 106.26 M 691.36 120.51 A 1.92 1.92 0 0 0 695.2 120.51 1.92 1.92 0 0 0 691.36 120.51 M 700.96 137.04 A 1.92 1.92 0 0 0 704.8 137.04 1.92 1.92 0 0 0 700.96 137.04 M 704 155.47 A 1.92 1.92 0 0 0 707.84 155.47 1.92 1.92 0 0 0 704 155.47 " stroke-width="0.96" fill="white" stroke="hsl(0, 0%, 30%)"></path></g><g data-comment="泉北高速鉄道"><text data-comment="路線名" x="656" y="514" font-size="20" fill="hsl(34, 100%, 50%)" font-family="Noto Sans JP">泉北高速鉄道</text><g data-comment="駅名"><text x="731.52" y="293.98" font-size="7.04" dominant-baseline="middle" fill="hsl(0, 0%, 30%)" font-family="Noto Sans JP">中百舌鳥</text><text x="760.32" y="294.53999999999996" font-size="4.224" dominant-baseline="middle" fill="hsl(0, 0%, 30%)" font-family="Noto Sans JP">なかもず</text><text x="720.48" y="343.19" font-size="7.04" dominant-baseline="middle" fill="hsl(0, 0%, 30%)" font-family="Noto Sans JP">深井</text><text x="742.72" y="406.46" font-size="11.2" dominant-baseline="middle" fill="hsl(0, 0%, 30%)" font-family="Noto Sans JP">泉ヶ丘</text><text x="713.76" y="434.96" font-size="11.2" dominant-baseline="middle" fill="hsl(0, 0%, 30%)" font-family="Noto Sans JP">栂・美木多</text><text x="713.76" y="423.76" font-size="6.72" dominant-baseline="middle" fill="hsl(0, 0%, 30%)" font-family="Noto Sans JP">とが　みきた</text><text x="685.12" y="450.92" font-size="11.2" dominant-baseline="middle" fill="hsl(0, 0%, 30%)" font-family="Noto Sans JP">光明池</text><text x="656" y="476.19" font-size="11.2" dominant-baseline="middle" fill="hsl(0, 0%, 30%)" font-family="Noto Sans JP">和泉中央</text></g><path data-comment="路線" d="M727.04 293.22 730.72 298.92 731.84 300.44 740.16 308.23 740.96 309.75 741.28 311.65 740.64 315.26 739.36 316.97 718.56 336.92 716.48 339.77 716 342.43 715.68 345.09 716.48 347.75 739.36 392.59 741.28 397.15 741.44 399.62 741.28 401.33 738.24 405.7 736.48 407.22 715.36 419.38 704.48 428.5 680.64 448.26 668.48 458.33 655.04 470.3 649.92 473.53 " stroke-width="1.44" stroke="hsl(34, 100%, 50%)"></path><path data-comment="駅" d="M 725.12 293.22 A 1.92 1.92 0 0 0 728.96 293.22 1.92 1.92 0 0 0 725.12 293.22 M 714.08 342.43 A 1.92 1.92 0 0 0 717.92 342.43 1.92 1.92 0 0 0 714.08 342.43 M 734.56 405.7 A 3.68 3.68 0 0 0 741.92 405.7 3.68 3.68 0 0 0 734.56 405.7 M 700.8 428.5 A 3.68 3.68 0 0 0 708.16 428.5 3.68 3.68 0 0 0 700.8 428.5 M 676.96 448.26 A 3.68 3.68 0 0 0 684.32 448.26 3.68 3.68 0 0 0 676.96 448.26 M 646.24 473.53 A 3.68 3.68 0 0 0 653.6 473.53 3.68 3.68 0 0 0 646.24 473.53 " stroke-width="0.96" fill="white" stroke="hsl(0, 0%, 30%)"></path></g><text x="994" y="994" font-size="8" text-anchor="end" fill="hsl(0, 0%, 30%)" font-family="Noto Sans JP">路線データ: <a href="https://openstreetmap.org/copyright" target="blank">OpenStreetMap</a></text></svg>